BioRhyme-Light Extended.ufo
<glyph name="exclam" format="1">
  <advance width="286"/>
  <unicode hex="0021"/>
  <outline>
    <contour>
      <point x="152" y="148" type="line"/>
      <point x="156" y="272" type="line" smooth="yes"/>
      <point x="161" y="423"/>
      <point x="174" y="524"/>
      <point x="174" y="542" type="curve"/>
      <point x="174" y="559"/>
      <point x="165" y="573"/>
      <point x="144" y="573" type="curve"/>
      <point x="122" y="573"/>
      <point x="113" y="559"/>
      <point x="113" y="542" type="curve"/>
      <point x="113" y="524"/>
      <point x="126" y="424"/>
      <point x="131" y="272" type="curve" smooth="yes"/>
      <point x="135" y="148" type="line"/>
    </contour>
    <contour>
      <point x="112" y="54"/>
      <point x="94" y="41"/>
      <point x="94" y="22" type="curve"/>
      <point x="94" y="4"/>
      <point x="112" y="-10"/>
      <point x="143" y="-10" type="curve"/>
      <point x="175" y="-10"/>
      <point x="192" y="4"/>
      <point x="192" y="22" type="curve"/>
      <point x="192" y="41"/>
      <point x="175" y="54"/>
      <point x="143" y="54" type="curve"/>
    </contour>
  </outline>
</glyph>
<glyph name="percent" format="1">
  <advance width="945"/>
  <unicode hex="0025"/>
  <outline>
    <contour>
      <point x="779" y="480" type="line"/>
      <point x="763" y="495" type="line"/>
      <point x="164" y="-10" type="line"/>
      <point x="180" y="-25" type="line"/>
    </contour>
    <contour>
      <point x="305" y="231"/>
      <point x="372" y="279"/>
      <point x="372" y="356" type="curve" smooth="yes"/>
      <point x="372" y="430"/>
      <point x="305" y="482"/>
      <point x="216" y="482" type="curve" smooth="yes"/>
      <point x="127" y="482"/>
      <point x="60" y="434"/>
      <point x="60" y="357" type="curve" smooth="yes"/>
      <point x="60" y="283"/>
      <point x="127" y="231"/>
      <point x="216" y="231" type="curve" smooth="yes"/>
    </contour>
    <contour>
      <point x="138" y="253"/>
      <point x="83" y="297"/>
      <point x="83" y="357" type="curve" smooth="yes"/>
      <point x="83" y="419"/>
      <point x="138" y="460"/>
      <point x="216" y="460" type="curve" smooth="yes"/>
      <point x="294" y="460"/>
      <point x="349" y="416"/>
      <point x="349" y="356" type="curve" smooth="yes"/>
      <point x="349" y="294"/>
      <point x="294" y="253"/>
      <point x="216" y="253" type="curve" smooth="yes"/>
    </contour>
    <contour>
      <point x="818" y="-12"/>
      <point x="885" y="36"/>
      <point x="885" y="113" type="curve" smooth="yes"/>
      <point x="885" y="187"/>
      <point x="818" y="239"/>
      <point x="729" y="239" type="curve" smooth="yes"/>
      <point x="640" y="239"/>
      <point x="573" y="191"/>
      <point x="573" y="114" type="curve" smooth="yes"/>
      <point x="573" y="40"/>
      <point x="640" y="-12"/>
      <point x="729" y="-12" type="curve" smooth="yes"/>
    </contour>
    <contour>
      <point x="651" y="10"/>
      <point x="596" y="54"/>
      <point x="596" y="114" type="curve" smooth="yes"/>
      <point x="596" y="176"/>
      <point x="651" y="217"/>
      <point x="729" y="217" type="curve" smooth="yes"/>
      <point x="807" y="217"/>
      <point x="862" y="173"/>
      <point x="862" y="113" type="curve" smooth="yes"/>
      <point x="862" y="51"/>
      <point x="807" y="10"/>
      <point x="729" y="10" type="curve" smooth="yes"/>
    </contour>
  </outline>
</glyph>
<glyph name="ampersand" format="1">
  <advance width="733"/>
  <unicode hex="0026"/>
  <outline>
    <contour>
      <point x="489" y="-11"/>
      <point x="640" y="105"/>
      <point x="640" y="209" type="curve" smooth="yes"/>
      <point x="640" y="271"/>
      <point x="608" y="304"/>
      <point x="583" y="325" type="curve"/>
      <point x="566" y="308" type="line"/>
      <point x="591" y="284"/>
      <point x="615" y="262"/>
      <point x="615" y="210" type="curve" smooth="yes"/>
      <point x="615" y="119"/>
      <point x="480" y="11"/>
      <point x="263" y="11" type="curve" smooth="yes"/>
      <point x="113" y="11"/>
      <point x="65" y="66"/>
      <point x="65" y="123" type="curve" smooth="yes"/>
      <point x="65" y="203"/>
      <point x="149" y="229"/>
      <point x="287" y="267" type="curve" smooth="yes"/>
      <point x="434" y="307"/>
      <point x="501" y="356"/>
      <point x="501" y="429" type="curve" smooth="yes"/>
      <point x="501" y="480"/>
      <point x="459" y="528"/>
      <point x="388" y="528" type="curve" smooth="yes"/>
      <point x="306" y="528"/>
      <point x="232" y="462"/>
      <point x="232" y="360" type="curve" smooth="yes"/>
      <point x="232" y="138"/>
      <point x="441" y="-10"/>
      <point x="592" y="-10" type="curve" smooth="yes"/>
      <point x="641" y="-10"/>
      <point x="674" y="-1"/>
      <point x="713" y="21" type="curve"/>
      <point x="704" y="42" type="line"/>
      <point x="670" y="21"/>
      <point x="639" y="13"/>
      <point x="592" y="13" type="curve" smooth="yes"/>
      <point x="450" y="13"/>
      <point x="257" y="154"/>
      <point x="257" y="360" type="curve" smooth="yes"/>
      <point x="257" y="462"/>
      <point x="329" y="505"/>
      <point x="388" y="505" type="curve" smooth="yes"/>
      <point x="442" y="505"/>
      <point x="476" y="471"/>
      <point x="476" y="425" type="curve" smooth="yes"/>
      <point x="476" y="373"/>
      <point x="416" y="328"/>
      <point x="283" y="289" type="curve" smooth="yes"/>
      <point x="130" y="245"/>
      <point x="40" y="216"/>
      <point x="40" y="123" type="curve" smooth="yes"/>
      <point x="40" y="46"/>
      <point x="108" y="-13"/>
      <point x="263" y="-12" type="curve" smooth="yes"/>
    </contour>
  </outline>
</glyph>
<glyph name="two" format="1">
  <advance width="729"/>
  <unicode hex="0032"/>
  <outline>
    <contour>
      <point x="406" y="164" type="line" smooth="yes"/>
      <point x="507" y="209"/>
      <point x="592" y="251"/>
      <point x="592" y="338" type="curve" smooth="yes"/>
      <point x="592" y="429"/>
      <point x="504" y="480"/>
      <point x="372" y="480" type="curve" smooth="yes"/>
      <point x="242" y="480"/>
      <point x="140" y="431"/>
      <point x="59" y="368" type="curve"/>
      <point x="73" y="349" type="line"/>
      <point x="153" y="409"/>
      <point x="253" y="457"/>
      <point x="372" y="457" type="curve" smooth="yes"/>
      <point x="500" y="457"/>
      <point x="567" y="412"/>
      <point x="567" y="339" type="curve" smooth="yes"/>
      <point x="567" y="266"/>
      <point x="497" y="230"/>
      <point x="396" y="184" type="curve" smooth="yes"/>
      <point x="40" y="23" type="line"/>
      <point x="63" y="11" type="line"/>
    </contour>
    <contour>
      <point x="634" y="0" type="line"/>
      <point x="634" y="163" type="line"/>
      <point x="610" y="163" type="line"/>
      <point x="610" y="23" type="line"/>
      <point x="41" y="23" type="line"/>
      <point x="41" y="0" type="line"/>
    </contour>
  </outline>
</glyph>
<glyph name="seven" format="1">
  <advance width="708"/>
  <unicode hex="0037"/>
  <outline>
    <contour>
      <point x="211" y="4" type="line"/>
      <point x="227" y="-10" type="line"/>
      <point x="668" y="444" type="line"/>
      <point x="640" y="450" type="line"/>
    </contour>
    <contour>
      <point x="65" y="467" type="line"/>
      <point x="65" y="284" type="line"/>
      <point x="89" y="284" type="line"/>
      <point x="89" y="444" type="line"/>
      <point x="668" y="444" type="line"/>
      <point x="668" y="467" type="line"/>
    </contour>
  </outline>
</glyph>
<glyph name="E" format="1">
  <advance width="992"/>
  <unicode hex="0045"/>
  <outline>
    <contour>
      <point x="862" y="0" type="line"/>
      <point x="862" y="183" type="line"/>
      <point x="838" y="183" type="line"/>
      <point x="838" y="23" type="line"/>
      <point x="56" y="23" type="line"/>
      <point x="56" y="0" type="line"/>
    </contour>
    <contour>
      <point x="263" y="13" type="line"/>
      <point x="263" y="507" type="line"/>
      <point x="238" y="507" type="line"/>
      <point x="238" y="13" type="line"/>
    </contour>
    <contour>
      <point x="583" y="261" type="line"/>
      <point x="583" y="284" type="line"/>
      <point x="260" y="284" type="line"/>
      <point x="260" y="261" type="line"/>
    </contour>
    <contour>
      <point x="596" y="153" type="line"/>
      <point x="596" y="392" type="line"/>
      <point x="571" y="392" type="line"/>
      <point x="571" y="153" type="line"/>
    </contour>
    <contour>
      <point x="862" y="337" type="line"/>
      <point x="862" y="520" type="line"/>
      <point x="56" y="520" type="line"/>
      <point x="56" y="497" type="line"/>
      <point x="837" y="497" type="line"/>
      <point x="837" y="337" type="line"/>
    </contour>
    <contour>
      <point x="862" y="0" type="move" name="ogonek"/>
    </contour>
    <contour>
      <point x="501" y="0" type="move" name="bottom"/>
    </contour>
    <contour>
      <point x="529" y="520" type="move" name="top"/>
    </contour>
  </outline>
</glyph>
<glyph name="F" format="1">
  <advance width="887"/>
  <unicode hex="0046"/>
  <outline>
    <contour>
      <point x="812" y="337" type="line"/>
      <point x="812" y="520" type="line"/>
      <point x="56" y="520" type="line"/>
      <point x="56" y="497" type="line"/>
      <point x="788" y="497" type="line"/>
      <point x="788" y="337" type="line"/>
    </contour>
    <contour>
      <point x="455" y="0" type="line"/>
      <point x="455" y="23" type="line"/>
      <point x="56" y="23" type="line"/>
      <point x="56" y="0" type="line"/>
    </contour>
    <contour>
      <point x="263" y="13" type="line"/>
      <point x="263" y="507" type="line"/>
      <point x="238" y="507" type="line"/>
      <point x="238" y="13" type="line"/>
    </contour>
    <contour>
      <point x="553" y="240" type="line"/>
      <point x="553" y="263" type="line"/>
      <point x="260" y="263" type="line"/>
      <point x="260" y="240" type="line"/>
    </contour>
    <contour>
      <point x="565" y="132" type="line"/>
      <point x="565" y="371" type="line"/>
      <point x="541" y="371" type="line"/>
      <point x="541" y="132" type="line"/>
    </contour>
    <contour>
      <point x="449" y="490" type="move" name="top"/>
    </contour>
    <contour>
      <point x="449" y="0" type="move" name="bottom"/>
    </contour>
  </outline>
</glyph>
<glyph name="L" format="1">
  <advance width="869"/>
  <unicode hex="004C"/>
  <outline>
    <contour>
      <point x="789" y="0" type="line"/>
      <point x="789" y="183" type="line"/>
      <point x="764" y="183" type="line"/>
      <point x="764" y="23" type="line"/>
      <point x="56" y="23" type="line"/>
      <point x="56" y="0" type="line"/>
    </contour>
    <contour>
      <point x="263" y="13" type="line"/>
      <point x="263" y="507" type="line"/>
      <point x="238" y="507" type="line"/>
      <point x="238" y="13" type="line"/>
    </contour>
    <contour>
      <point x="445" y="497" type="line"/>
      <point x="445" y="520" type="line"/>
      <point x="56" y="520" type="line"/>
      <point x="56" y="497" type="line"/>
    </contour>
    <contour>
      <point x="412" y="0" type="move" name="bottom"/>
    </contour>
    <contour>
      <point x="412" y="520" type="move" name="top"/>
    </contour>
    <contour>
      <point x="804" y="490" type="move" name="topright"/>
    </contour>
    <contour>
      <point x="412" y="245" type="move" name="center"/>
    </contour>
  </outline>
</glyph>
<glyph name="X" format="1">
  <advance width="950"/>
  <unicode hex="0058"/>
  <outline>
    <contour>
      <point x="905" y="0" type="line"/>
      <point x="905" y="23" type="line"/>
      <point x="736" y="23" type="line"/>
      <point x="723" y="23" type="line"/>
      <point x="569" y="23" type="line"/>
      <point x="569" y="0" type="line"/>
    </contour>
    <contour>
      <point x="381" y="0" type="line"/>
      <point x="381" y="23" type="line"/>
      <point x="230" y="23" type="line"/>
      <point x="215" y="23" type="line"/>
      <point x="45" y="23" type="line"/>
      <point x="45" y="0" type="line"/>
    </contour>
    <contour>
      <point x="759" y="12" type="line"/>
      <point x="486" y="261" type="line"/>
      <point x="483" y="261" type="line"/>
      <point x="214" y="507" type="line"/>
      <point x="177" y="507" type="line"/>
      <point x="464" y="246" type="line"/>
      <point x="467" y="246" type="line"/>
      <point x="722" y="12" type="line"/>
    </contour>
    <contour>
      <point x="228" y="12" type="line"/>
      <point x="483" y="246" type="line"/>
      <point x="486" y="246" type="line"/>
      <point x="773" y="507" type="line"/>
      <point x="738" y="507" type="line"/>
      <point x="469" y="261" type="line"/>
      <point x="466" y="261" type="line"/>
      <point x="193" y="12" type="line"/>
    </contour>
    <contour>
      <point x="198" y="497" type="line"/>
      <point x="211" y="497" type="line"/>
      <point x="382" y="497" type="line"/>
      <point x="382" y="520" type="line" smooth="yes"/>
      <point x="45" y="520" type="line"/>
      <point x="45" y="497" type="line"/>
    </contour>
    <contour>
      <point x="738" y="497" type="line"/>
      <point x="752" y="497" type="line"/>
      <point x="905" y="497" type="line"/>
      <point x="905" y="520" type="line"/>
      <point x="568" y="520" type="line" smooth="yes"/>
      <point x="568" y="497" type="line"/>
    </contour>
    <contour>
      <point x="475" y="490" type="move" name="top"/>
    </contour>
    <contour>
      <point x="475" y="0" type="move" name="bottom"/>
    </contour>
  </outline>
</glyph>
<glyph name="Y" format="1">
  <advance width="920"/>
  <unicode hex="0059"/>
  <outline>
    <contour>
      <point x="469" y="178" type="line"/>
      <point x="764" y="508" type="line"/>
      <point x="731" y="508" type="line"/>
      <point x="461" y="206" type="line"/>
      <point x="194" y="505" type="line"/>
      <point x="158" y="505" type="line"/>
      <point x="451" y="178" type="line"/>
    </contour>
    <contour>
      <point x="655" y="0" type="line"/>
      <point x="655" y="23" type="line"/>
      <point x="266" y="23" type="line"/>
      <point x="266" y="0" type="line"/>
    </contour>
    <contour>
      <point x="473" y="0" type="line"/>
      <point x="473" y="204" type="line"/>
      <point x="448" y="204" type="line"/>
      <point x="448" y="0" type="line"/>
    </contour>
    <contour>
      <point x="342" y="497" type="line"/>
      <point x="342" y="520" type="line"/>
      <point x="5" y="520" type="line"/>
      <point x="5" y="497" type="line"/>
    </contour>
    <contour>
      <point x="915" y="497" type="line"/>
      <point x="915" y="520" type="line"/>
      <point x="579" y="520" type="line"/>
      <point x="579" y="497" type="line"/>
    </contour>
    <contour>
      <point x="460" y="510" type="move" name="top"/>
    </contour>
    <contour>
      <point x="460" y="0" type="move" name="bottom"/>
    </contour>
  </outline>
</glyph>
<glyph name="a" format="1">
  <advance width="805"/>
  <unicode hex="0061"/>
  <outline>
    <contour>
      <point x="741" y="-10"/>
      <point x="768" y="2"/>
      <point x="792" y="19" type="curve"/>
      <point x="782" y="39" type="line"/>
      <point x="759" y="22"/>
      <point x="738" y="13"/>
      <point x="711" y="13" type="curve" smooth="yes"/>
      <point x="678" y="13"/>
      <point x="647" y="38"/>
      <point x="647" y="93" type="curve" smooth="yes"/>
      <point x="647" y="197" type="line" smooth="yes"/>
      <point x="647" y="297"/>
      <point x="572" y="367"/>
      <point x="414" y="367" type="curve" smooth="yes"/>
      <point x="315" y="367"/>
      <point x="213" y="346"/>
      <point x="104" y="310" type="curve"/>
      <point x="112" y="287" type="line"/>
      <point x="214" y="319"/>
      <point x="311" y="344"/>
      <point x="414" y="344" type="curve" smooth="yes"/>
      <point x="559" y="344"/>
      <point x="622" y="281"/>
      <point x="622" y="197" type="curve" smooth="yes"/>
      <point x="622" y="93" type="line" smooth="yes"/>
      <point x="622" y="28"/>
      <point x="659" y="-10"/>
      <point x="710" y="-10" type="curve" smooth="yes"/>
    </contour>
    <contour>
      <point x="397" y="-10"/>
      <point x="524" y="20"/>
      <point x="633" y="76" type="curve"/>
      <point x="633" y="98" type="line"/>
      <point x="519" y="44"/>
      <point x="395" y="13"/>
      <point x="287" y="13" type="curve" smooth="yes"/>
      <point x="177" y="13"/>
      <point x="115" y="39"/>
      <point x="115" y="92" type="curve" smooth="yes"/>
      <point x="115" y="148"/>
      <point x="196" y="186"/>
      <point x="328" y="186" type="curve" smooth="yes"/>
      <point x="442" y="186"/>
      <point x="548" y="171"/>
      <point x="633" y="153" type="curve"/>
      <point x="633" y="173" type="line"/>
      <point x="548" y="192"/>
      <point x="449" y="209"/>
      <point x="328" y="209" type="curve" smooth="yes"/>
      <point x="180" y="209"/>
      <point x="90" y="164"/>
      <point x="90" y="90" type="curve" smooth="yes"/>
      <point x="90" y="24"/>
      <point x="161" y="-10"/>
      <point x="287" y="-10" type="curve" smooth="yes"/>
    </contour>
    <contour>
      <point x="792" y="19" type="move" name="ogonek"/>
    </contour>
    <contour>
      <point x="287" y="-10" type="move" name="bottom"/>
    </contour>
    <contour>
      <point x="384" y="367" type="move" name="top"/>
    </contour>
  </outline>
</glyph>
<glyph name="i" format="1">
  <advance width="469"/>
  <unicode hex="0069"/>
  <outline>
    <contour>
      <point x="257" y="0" type="line"/>
      <point x="257" y="357" type="line"/>
      <point x="232" y="357" type="line"/>
      <point x="232" y="0" type="line"/>
    </contour>
    <contour>
      <point x="439" y="0" type="line"/>
      <point x="439" y="23" type="line"/>
      <point x="50" y="23" type="line"/>
      <point x="50" y="0" type="line"/>
    </contour>
    <contour>
      <point x="257" y="334" type="line"/>
      <point x="257" y="357" type="line"/>
      <point x="50" y="357" type="line"/>
      <point x="50" y="334" type="line"/>
    </contour>
    <contour>
      <point x="265" y="469"/>
      <point x="281" y="482"/>
      <point x="281" y="499" type="curve"/>
      <point x="281" y="517"/>
      <point x="265" y="530"/>
      <point x="234" y="530" type="curve"/>
      <point x="204" y="530"/>
      <point x="187" y="517"/>
      <point x="187" y="499" type="curve"/>
      <point x="187" y="482"/>
      <point x="204" y="469"/>
      <point x="234" y="469" type="curve"/>
    </contour>
    <contour>
      <point x="410" y="10" type="move" name="ogonek"/>
    </contour>
    <contour>
      <point x="217" y="0" type="move" name="bottom"/>
    </contour>
    <contour>
      <point x="227" y="357" type="move" name="top"/>
    </contour>
  </outline>
</glyph>
<glyph name="j" format="1">
  <advance width="444"/>
  <unicode hex="006A"/>
  <outline>
    <contour>
      <point x="219" y="-180"/>
      <point x="269" y="-119"/>
      <point x="269" y="-22" type="curve" smooth="yes"/>
      <point x="269" y="344" type="line"/>
      <point x="244" y="344" type="line"/>
      <point x="244" y="-23" type="line" smooth="yes"/>
      <point x="244" y="-111"/>
      <point x="202" y="-157"/>
      <point x="126" y="-157" type="curve" smooth="yes"/>
      <point x="79" y="-157"/>
      <point x="34" y="-146"/>
      <point x="-8" y="-133" type="curve"/>
      <point x="-15" y="-155" type="line"/>
      <point x="27" y="-168"/>
      <point x="73" y="-180"/>
      <point x="125" y="-180" type="curve" smooth="yes"/>
    </contour>
    <contour>
      <point x="269" y="334" type="line"/>
      <point x="269" y="357" type="line"/>
      <point x="62" y="357" type="line"/>
      <point x="62" y="334" type="line"/>
    </contour>
    <contour>
      <point x="278" y="469"/>
      <point x="294" y="482"/>
      <point x="294" y="499" type="curve"/>
      <point x="294" y="517"/>
      <point x="278" y="530"/>
      <point x="247" y="530" type="curve"/>
      <point x="217" y="530"/>
      <point x="199" y="517"/>
      <point x="199" y="499" type="curve"/>
      <point x="199" y="482"/>
      <point x="217" y="469"/>
      <point x="247" y="469" type="curve"/>
    </contour>
    <contour>
      <point x="211" y="357" type="move" name="top"/>
    </contour>
    <contour>
      <point x="211" y="0" type="move" name="bottom"/>
    </contour>
  </outline>
</glyph>
<glyph name="l" format="1">
  <advance width="449"/>
  <unicode hex="006C"/>
  <outline>
    <contour>
      <point x="237" y="0" type="line"/>
      <point x="237" y="520" type="line"/>
      <point x="212" y="520" type="line"/>
      <point x="212" y="0" type="line"/>
    </contour>
    <contour>
      <point x="419" y="0" type="line"/>
      <point x="419" y="23" type="line"/>
      <point x="30" y="23" type="line"/>
      <point x="30" y="0" type="line"/>
    </contour>
    <contour>
      <point x="237" y="497" type="line"/>
      <point x="237" y="520" type="line"/>
      <point x="30" y="520" type="line"/>
      <point x="30" y="497" type="line"/>
    </contour>
    <contour>
      <point x="212" y="0" type="move" name="bottom"/>
    </contour>
    <contour>
      <point x="212" y="520" type="move" name="top"/>
    </contour>
    <contour>
      <point x="381" y="357" type="move" name="topright"/>
    </contour>
    <contour>
      <point x="212" y="283" type="move" name="center"/>
    </contour>
  </outline>
</glyph>
<glyph name="o" format="1">
  <advance width="799"/>
  <unicode hex="006F"/>
  <outline>
    <contour>
      <point x="578" y="-10"/>
      <point x="719" y="60"/>
      <point x="719" y="179" type="curve"/>
      <point x="719" y="302"/>
      <point x="578" y="367"/>
      <point x="399" y="367" type="curve"/>
      <point x="221" y="366"/>
      <point x="80" y="302"/>
      <point x="80" y="179" type="curve"/>
      <point x="80" y="60"/>
      <point x="221" y="-10"/>
      <point x="399" y="-10" type="curve" smooth="yes"/>
    </contour>
    <contour>
      <point x="232" y="13"/>
      <point x="105" y="76"/>
      <point x="105" y="179" type="curve"/>
      <point x="105" y="285"/>
      <point x="232" y="343"/>
      <point x="399" y="344" type="curve"/>
      <point x="567" y="344"/>
      <point x="695" y="285"/>
      <point x="695" y="179" type="curve"/>
      <point x="695" y="76"/>
      <point x="567" y="13"/>
      <point x="399" y="13" type="curve" smooth="yes"/>
    </contour>
    <contour>
      <point x="399" y="-10" type="move" name="bottom"/>
    </contour>
    <contour>
      <point x="399" y="-10" type="move" name="ogonek"/>
    </contour>
    <contour>
      <point x="400" y="367" type="move" name="top"/>
    </contour>
    <contour>
      <point x="769" y="357" type="move" name="topright"/>
    </contour>
    <contour>
      <point x="400" y="179" type="move" name="center"/>
    </contour>
  </outline>
</glyph>
<glyph name="v" format="1">
  <advance width="753"/>
  <unicode hex="0076"/>
  <outline>
    <contour>
      <point x="377" y="-10" type="line"/>
      <point x="635" y="348" type="line"/>
      <point x="608" y="348" type="line"/>
      <point x="375" y="23" type="line"/>
      <point x="142" y="348" type="line"/>
      <point x="112" y="348" type="line"/>
      <point x="371" y="-10" type="line"/>
    </contour>
    <contour>
      <point x="273" y="334" type="line"/>
      <point x="273" y="357" type="line"/>
      <point x="0" y="357" type="line"/>
      <point x="0" y="334" type="line"/>
    </contour>
    <contour>
      <point x="753" y="334" type="line"/>
      <point x="753" y="357" type="line"/>
      <point x="479" y="357" type="line"/>
      <point x="479" y="334" type="line"/>
    </contour>
    <contour>
      <point x="377" y="347" type="move" name="top"/>
    </contour>
    <contour>
      <point x="375" y="0" type="move" name="bottom"/>
    </contour>
  </outline>
</glyph>
<glyph name="x" format="1">
  <advance width="839"/>
  <unicode hex="0078"/>
  <outline>
    <contour>
      <point x="179" y="9" type="line"/>
      <point x="427" y="173" type="line"/>
      <point x="431" y="173" type="line"/>
      <point x="695" y="348" type="line"/>
      <point x="660" y="348" type="line"/>
      <point x="412" y="185" type="line"/>
      <point x="408" y="185" type="line"/>
      <point x="144" y="9" type="line"/>
    </contour>
    <contour>
      <point x="363" y="0" type="line"/>
      <point x="363" y="23" type="line"/>
      <point x="187" y="23" type="line"/>
      <point x="175" y="23" type="line"/>
      <point x="55" y="23" type="line"/>
      <point x="55" y="0" type="line"/>
    </contour>
    <contour>
      <point x="784" y="0" type="line"/>
      <point x="784" y="23" type="line"/>
      <point x="662" y="23" type="line"/>
      <point x="651" y="23" type="line"/>
      <point x="476" y="23" type="line"/>
      <point x="476" y="0" type="line"/>
    </contour>
    <contour>
      <point x="697" y="9" type="line"/>
      <point x="431" y="185" type="line"/>
      <point x="430" y="185" type="line"/>
      <point x="183" y="348" type="line"/>
      <point x="142" y="348" type="line"/>
      <point x="408" y="173" type="line"/>
      <point x="409" y="173" type="line"/>
      <point x="656" y="9" type="line"/>
    </contour>
    <contour>
      <point x="178" y="334" type="line"/>
      <point x="189" y="334" type="line"/>
      <point x="363" y="334" type="line"/>
      <point x="363" y="357" type="line"/>
      <point x="55" y="357" type="line"/>
      <point x="55" y="334" type="line"/>
    </contour>
    <contour>
      <point x="655" y="334" type="line"/>
      <point x="664" y="334" type="line"/>
      <point x="784" y="334" type="line"/>
      <point x="784" y="357" type="line"/>
      <point x="476" y="357" type="line"/>
      <point x="476" y="334" type="line"/>
    </contour>
    <contour>
      <point x="423" y="357" type="move" name="top"/>
    </contour>
    <contour>
      <point x="423" y="0" type="move" name="bottom"/>
    </contour>
  </outline>
</glyph>
<glyph name="y" format="1">
  <advance width="762"/>
  <unicode hex="0079"/>
  <outline>
    <contour>
      <point x="277" y="-180"/>
      <point x="333" y="-123"/>
      <point x="381" y="-48" type="curve" smooth="yes"/>
      <point x="631" y="343" type="line"/>
      <point x="603" y="343" type="line"/>
      <point x="353" y="-49" type="line" smooth="yes"/>
      <point x="309" y="-117"/>
      <point x="261" y="-157"/>
      <point x="191" y="-157" type="curve" smooth="yes"/>
      <point x="135" y="-157"/>
      <point x="93" y="-140"/>
      <point x="43" y="-116" type="curve"/>
      <point x="35" y="-138" type="line"/>
      <point x="87" y="-160"/>
      <point x="126" y="-180"/>
      <point x="190" y="-180" type="curve" smooth="yes"/>
    </contour>
    <contour>
      <point x="387" y="-10" type="line"/>
      <point x="146" y="348" type="line"/>
      <point x="118" y="348" type="line"/>
      <point x="372" y="-34" type="line"/>
    </contour>
    <contour>
      <point x="278" y="334" type="line"/>
      <point x="278" y="357" type="line"/>
      <point x="5" y="357" type="line"/>
      <point x="5" y="334" type="line"/>
    </contour>
    <contour>
      <point x="752" y="334" type="line"/>
      <point x="752" y="357" type="line"/>
      <point x="479" y="357" type="line"/>
      <point x="479" y="334" type="line"/>
    </contour>
    <contour>
      <point x="381" y="347" type="move" name="top"/>
    </contour>
    <contour>
      <point x="381" y="0" type="move" name="bottom"/>
    </contour>
  </outline>
</glyph>
<glyph name="copyright" format="1">
  <advance width="954"/>
  <unicode hex="00A9"/>
  <outline>
    <contour>
      <point x="721" y="-165"/>
      <point x="894" y="-20"/>
      <point x="894" y="177" type="curve"/>
      <point x="894" y="374"/>
      <point x="721" y="519"/>
      <point x="477" y="519" type="curve"/>
      <point x="233" y="519"/>
      <point x="60" y="374"/>
      <point x="60" y="177" type="curve"/>
      <point x="60" y="-20"/>
      <point x="233" y="-165"/>
      <point x="477" y="-165" type="curve"/>
    </contour>
    <contour>
      <point x="582" y="13"/>
      <point x="655" y="60"/>
      <point x="698" y="115" type="curve"/>
      <point x="681" y="130" type="line"/>
      <point x="641" y="79"/>
      <point x="563" y="35"/>
      <point x="458" y="36" type="curve" smooth="yes"/>
      <point x="343" y="37"/>
      <point x="269" y="92"/>
      <point x="269" y="172" type="curve" smooth="yes"/>
      <point x="269" y="255"/>
      <point x="359" y="311"/>
      <point x="461" y="311" type="curve" smooth="yes"/>
      <point x="552" y="311"/>
      <point x="632" y="278"/>
      <point x="693" y="201" type="curve"/>
      <point x="699" y="203" type="line"/>
      <point x="699" y="334" type="line"/>
      <point x="676" y="334" type="line"/>
      <point x="676" y="240" type="line"/>
      <point x="689" y="235" type="line"/>
      <point x="647" y="285"/>
      <point x="567" y="334"/>
      <point x="463" y="334" type="curve" smooth="yes"/>
      <point x="343" y="334"/>
      <point x="244" y="272"/>
      <point x="244" y="172" type="curve" smooth="yes"/>
      <point x="244" y="71"/>
      <point x="332" y="13"/>
      <point x="458" y="13" type="curve" smooth="yes"/>
    </contour>
    <contour>
      <point x="244" y="-142"/>
      <point x="85" y="-2"/>
      <point x="85" y="177" type="curve"/>
      <point x="85" y="356"/>
      <point x="244" y="496"/>
      <point x="477" y="496" type="curve"/>
      <point x="710" y="496"/>
      <point x="869" y="356"/>
      <point x="869" y="177" type="curve"/>
      <point x="869" y="-2"/>
      <point x="710" y="-142"/>
      <point x="477" y="-142" type="curve"/>
    </contour>
  </outline>
</glyph>
<glyph name="uni00B5" format="1">
  <advance width="906"/>
  <unicode hex="00B5"/>
  <outline>
    <contour>
      <point x="491" y="-20"/>
      <point x="586" y="30"/>
      <point x="686" y="78" type="curve"/>
      <point x="686" y="102" type="line"/>
      <point x="586" y="52"/>
      <point x="476" y="3"/>
      <point x="387" y="3" type="curve"/>
      <point x="287" y="4"/>
      <point x="226" y="50"/>
      <point x="226" y="155" type="curve"/>
      <point x="226" y="357" type="line"/>
      <point x="209" y="357" type="line"/>
      <point x="209" y="155" type="line"/>
      <point x="209" y="29"/>
      <point x="277" y="-20"/>
      <point x="387" y="-20" type="curve"/>
    </contour>
    <contour>
      <point x="226" y="-165" type="line"/>
      <point x="226" y="0" type="line" smooth="yes"/>
      <point x="226" y="32"/>
      <point x="220" y="65"/>
      <point x="217" y="97" type="curve"/>
      <point x="217" y="357" type="line"/>
      <point x="202" y="357" type="line"/>
      <point x="202" y="-165" type="line"/>
    </contour>
    <contour>
      <point x="226" y="334" type="line"/>
      <point x="226" y="357" type="line"/>
      <point x="30" y="357" type="line"/>
      <point x="30" y="334" type="line"/>
    </contour>
    <contour>
      <point x="795" y="-20"/>
      <point x="821" y="-8"/>
      <point x="846" y="9" type="curve"/>
      <point x="836" y="29" type="line"/>
      <point x="813" y="12"/>
      <point x="791" y="3"/>
      <point x="764" y="3" type="curve" smooth="yes"/>
      <point x="732" y="3"/>
      <point x="700" y="28"/>
      <point x="700" y="84" type="curve"/>
      <point x="700" y="357" type="line"/>
      <point x="675" y="357" type="line"/>
      <point x="675" y="84" type="line"/>
      <point x="675" y="18"/>
      <point x="713" y="-20"/>
      <point x="763" y="-20" type="curve" smooth="yes"/>
    </contour>
  </outline>
</glyph>
<glyph name="germandbls" format="1">
  <advance width="848"/>
  <unicode hex="00DF"/>
  <outline>
    <contour>
      <point x="742" y="-10"/>
      <point x="803" y="25"/>
      <point x="803" y="82" type="curve" smooth="yes"/>
      <point x="803" y="154"/>
      <point x="714" y="170"/>
      <point x="599" y="181" type="curve" smooth="yes"/>
      <point x="475" y="193"/>
      <point x="418" y="207"/>
      <point x="418" y="252" type="curve" smooth="yes"/>
      <point x="418" y="302"/>
      <point x="490" y="317"/>
      <point x="560" y="329" type="curve" smooth="yes"/>
      <point x="667" y="347"/>
      <point x="729" y="367"/>
      <point x="729" y="442" type="curve" smooth="yes"/>
      <point x="729" y="521"/>
      <point x="607" y="585"/>
      <point x="435" y="585" type="curve" smooth="yes"/>
      <point x="270" y="585"/>
      <point x="210" y="504"/>
      <point x="210" y="406" type="curve" smooth="yes"/>
      <point x="210" y="0" type="line"/>
      <point x="235" y="0" type="line"/>
      <point x="235" y="408" type="line" smooth="yes"/>
      <point x="235" y="495"/>
      <point x="287" y="562"/>
      <point x="433" y="562" type="curve" smooth="yes"/>
      <point x="594" y="562"/>
      <point x="704" y="509"/>
      <point x="704" y="442" type="curve" smooth="yes"/>
      <point x="704" y="381"/>
      <point x="646" y="368"/>
      <point x="555" y="352" type="curve" smooth="yes"/>
      <point x="448" y="333"/>
      <point x="393" y="308"/>
      <point x="393" y="251" type="curve" smooth="yes"/>
      <point x="393" y="192"/>
      <point x="454" y="168"/>
      <point x="599" y="156" type="curve" smooth="yes"/>
      <point x="707" y="147"/>
      <point x="779" y="133"/>
      <point x="779" y="81" type="curve" smooth="yes"/>
      <point x="779" y="38"/>
      <point x="718" y="12"/>
      <point x="648" y="12" type="curve" smooth="yes"/>
      <point x="567" y="12"/>
      <point x="446" y="50"/>
      <point x="377" y="136" type="curve"/>
      <point x="377" y="136" type="line"/>
      <point x="377" y="0" type="line"/>
      <point x="399" y="0" type="line"/>
      <point x="399" y="99" type="line"/>
      <point x="383" y="106" type="line"/>
      <point x="430" y="43"/>
      <point x="545" y="-10"/>
      <point x="648" y="-10" type="curve" smooth="yes"/>
    </contour>
    <contour>
      <point x="220" y="0" type="line"/>
      <point x="220" y="23" type="line"/>
      <point x="50" y="23" type="line"/>
      <point x="50" y="0" type="line"/>
    </contour>
    <contour>
      <point x="219" y="334" type="line"/>
      <point x="219" y="357" type="line"/>
      <point x="50" y="357" type="line"/>
      <point x="50" y="334" type="line"/>
    </contour>
  </outline>
</glyph>
<glyph name="oslash" format="1">
  <advance width="799"/>
  <unicode hex="00F8"/>
  <outline>
    <contour>
      <point x="318" y="2" type="line"/>
      <point x="323" y="12" type="line"/>
      <point x="496" y="347" type="line"/>
      <point x="501" y="356" type="line"/>
      <point x="529" y="411" type="line"/>
      <point x="501" y="411" type="line"/>
      <point x="475" y="360" type="line"/>
      <point x="470" y="351" type="line"/>
      <point x="297" y="16" type="line"/>
      <point x="292" y="7" type="line"/>
      <point x="258" y="-59" type="line"/>
      <point x="286" y="-59" type="line"/>
    </contour>
    <component base="o"/>
  </outline>
</glyph>
<glyph name="Hbar" format="1">
  <advance width="1132"/>
  <unicode hex="0126"/>
  <outline>
    <contour>
      <point x="1076" y="370" type="line"/>
      <point x="1076" y="392" type="line"/>
      <point x="56" y="392" type="line"/>
      <point x="56" y="370" type="line"/>
    </contour>
    <contour>
      <point x="445" y="0" type="line"/>
      <point x="445" y="23" type="line"/>
      <point x="56" y="23" type="line"/>
      <point x="56" y="0" type="line"/>
    </contour>
    <contour>
      <point x="263" y="11" type="line"/>
      <point x="263" y="507" type="line"/>
      <point x="238" y="507" type="line"/>
      <point x="238" y="11" type="line"/>
    </contour>
    <contour>
      <point x="1076" y="0" type="line"/>
      <point x="1076" y="23" type="line"/>
      <point x="687" y="23" type="line"/>
      <point x="687" y="0" type="line"/>
    </contour>
    <contour>
      <point x="875" y="253" type="line"/>
      <point x="875" y="276" type="line"/>
      <point x="258" y="276" type="line"/>
      <point x="258" y="253" type="line"/>
    </contour>
    <contour>
      <point x="445" y="497" type="line"/>
      <point x="445" y="520" type="line"/>
      <point x="56" y="520" type="line"/>
      <point x="56" y="497" type="line"/>
    </contour>
    <contour>
      <point x="894" y="13" type="line"/>
      <point x="894" y="509" type="line"/>
      <point x="869" y="509" type="line"/>
      <point x="869" y="13" type="line"/>
    </contour>
    <contour>
      <point x="1076" y="497" type="line"/>
      <point x="1076" y="520" type="line"/>
      <point x="687" y="520" type="line"/>
      <point x="687" y="497" type="line"/>
    </contour>
    <contour>
      <point x="571" y="255" type="move" name="center"/>
    </contour>
    <contour>
      <point x="571" y="0" type="move" name="bottom"/>
    </contour>
    <contour>
      <point x="571" y="520" type="move" name="top"/>
    </contour>
  </outline>
</glyph>
<glyph name="hbar" format="1">
  <advance width="947"/>
  <unicode hex="0127"/>
  <outline>
    <contour>
      <point x="752" y="0" type="line"/>
      <point x="752" y="135" type="line"/>
      <point x="752" y="257"/>
      <point x="703" y="367"/>
      <point x="547" y="367" type="curve" smooth="yes"/>
      <point x="411" y="367"/>
      <point x="288" y="263"/>
      <point x="224" y="211" type="curve"/>
      <point x="224" y="188" type="line"/>
      <point x="288" y="239"/>
      <point x="411" y="344"/>
      <point x="547" y="344" type="curve" smooth="yes"/>
      <point x="693" y="344"/>
      <point x="727" y="237"/>
      <point x="727" y="135" type="curve"/>
      <point x="727" y="0" type="line"/>
    </contour>
    <contour>
      <point x="419" y="0" type="line"/>
      <point x="419" y="23" type="line"/>
      <point x="30" y="23" type="line"/>
      <point x="30" y="0" type="line"/>
    </contour>
    <contour>
      <point x="237" y="0" type="line"/>
      <point x="237" y="520" type="line"/>
      <point x="212" y="520" type="line"/>
      <point x="212" y="0" type="line"/>
    </contour>
    <contour>
      <point x="224" y="497" type="line"/>
      <point x="224" y="520" type="line"/>
      <point x="30" y="520" type="line"/>
      <point x="30" y="497" type="line"/>
    </contour>
    <contour>
      <point x="934" y="0" type="line"/>
      <point x="934" y="23" type="line"/>
      <point x="545" y="23" type="line"/>
      <point x="545" y="0" type="line"/>
    </contour>
    <contour>
      <point x="466" y="414" type="line"/>
      <point x="466" y="436" type="line"/>
      <point x="30" y="436" type="line"/>
      <point x="30" y="414" type="line"/>
    </contour>
    <contour>
      <point x="465" y="179" type="move" name="center"/>
    </contour>
    <contour>
      <point x="465" y="0" type="move" name="bottom"/>
    </contour>
    <contour>
      <point x="465" y="367" type="move" name="top"/>
    </contour>
  </outline>
</glyph>
<glyph name="dotlessi" format="1">
  <advance width="469"/>
  <unicode hex="0131"/>
  <outline>
    <contour>
      <point x="257" y="0" type="line"/>
      <point x="257" y="357" type="line"/>
      <point x="232" y="357" type="line"/>
      <point x="232" y="0" type="line"/>
    </contour>
    <contour>
      <point x="439" y="0" type="line"/>
      <point x="439" y="23" type="line"/>
      <point x="50" y="23" type="line"/>
      <point x="50" y="0" type="line"/>
    </contour>
    <contour>
      <point x="257" y="334" type="line"/>
      <point x="257" y="357" type="line"/>
      <point x="50" y="357" type="line"/>
      <point x="50" y="334" type="line"/>
    </contour>
    <contour>
      <point x="439" y="0" type="move" name="ogonek"/>
    </contour>
    <contour>
      <point x="244" y="0" type="move" name="bottom"/>
    </contour>
    <contour>
      <point x="232" y="357" type="move" name="top"/>
    </contour>
  </outline>
</glyph>
<glyph name="uni0237" format="1">
  <advance width="419"/>
  <unicode hex="0237"/>
  <outline>
    <contour>
      <point x="219" y="-190"/>
      <point x="269" y="-129"/>
      <point x="269" y="-32" type="curve" smooth="yes"/>
      <point x="269" y="344" type="line"/>
      <point x="244" y="344" type="line"/>
      <point x="244" y="-33" type="line" smooth="yes"/>
      <point x="244" y="-121"/>
      <point x="202" y="-167"/>
      <point x="126" y="-167" type="curve" smooth="yes"/>
      <point x="79" y="-167"/>
      <point x="34" y="-156"/>
      <point x="-8" y="-143" type="curve"/>
      <point x="-15" y="-165" type="line"/>
      <point x="27" y="-178"/>
      <point x="73" y="-190"/>
      <point x="125" y="-190" type="curve" smooth="yes"/>
    </contour>
    <contour>
      <point x="269" y="334" type="line"/>
      <point x="269" y="357" type="line"/>
      <point x="62" y="357" type="line"/>
      <point x="62" y="334" type="line"/>
    </contour>
    <contour>
      <point x="211" y="357" type="move" name="top"/>
    </contour>
    <contour>
      <point x="211" y="0" type="move" name="bottom"/>
    </contour>
  </outline>
</glyph>
<glyph name="gravecomb" format="1">
  <advance width="490"/>
  <unicode hex="0300"/>
  <outline>
    <contour>
      <point x="344" y="612" type="line"/>
      <point x="40" y="733" type="line"/>
      <point x="51" y="761" type="line"/>
      <point x="350" y="630" type="line"/>
    </contour>
    <contour>
      <point x="252" y="520" type="move" name="_top"/>
    </contour>
  </outline>
</glyph>
<glyph name="uni0307" format="1">
  <advance width="254"/>
  <unicode hex="0307"/>
  <outline>
    <contour>
      <point x="158" y="633"/>
      <point x="174" y="646"/>
      <point x="174" y="663" type="curve"/>
      <point x="174" y="681"/>
      <point x="158" y="694"/>
      <point x="127" y="694" type="curve"/>
      <point x="97" y="694"/>
      <point x="80" y="681"/>
      <point x="80" y="663" type="curve"/>
      <point x="80" y="646"/>
      <point x="97" y="633"/>
      <point x="127" y="633" type="curve"/>
    </contour>
    <contour>
      <point x="127" y="520" type="move" name="_top"/>
    </contour>
  </outline>
</glyph>
<glyph name="uni0308" format="1">
  <advance width="482"/>
  <unicode hex="0308"/>
  <outline>
    <contour>
      <point x="381" y="634"/>
      <point x="396" y="647"/>
      <point x="396" y="663" type="curve"/>
      <point x="396" y="680"/>
      <point x="381" y="692"/>
      <point x="352" y="692" type="curve"/>
      <point x="324" y="692"/>
      <point x="307" y="680"/>
      <point x="307" y="663" type="curve"/>
      <point x="307" y="647"/>
      <point x="324" y="634"/>
      <point x="352" y="634" type="curve"/>
    </contour>
    <contour>
      <point x="159" y="634"/>
      <point x="175" y="647"/>
      <point x="175" y="663" type="curve"/>
      <point x="175" y="680"/>
      <point x="159" y="692"/>
      <point x="130" y="692" type="curve"/>
      <point x="102" y="692"/>
      <point x="86" y="680"/>
      <point x="86" y="663" type="curve"/>
      <point x="86" y="647"/>
      <point x="102" y="634"/>
      <point x="130" y="634" type="curve"/>
    </contour>
    <contour>
      <point x="245" y="520" type="move" name="_top"/>
    </contour>
  </outline>
</glyph>
<glyph name="uni030A" format="1">
  <advance width="411"/>
  <unicode hex="030A"/>
  <outline>
    <contour>
      <point x="285" y="614"/>
      <point x="341" y="660"/>
      <point x="341" y="720" type="curve"/>
      <point x="341" y="783"/>
      <point x="285" y="825"/>
      <point x="206" y="825" type="curve"/>
      <point x="131" y="825"/>
      <point x="70" y="783"/>
      <point x="70" y="720" type="curve"/>
      <point x="70" y="660"/>
      <point x="131" y="614"/>
      <point x="206" y="614" type="curve"/>
    </contour>
    <contour>
      <point x="142" y="636"/>
      <point x="93" y="674"/>
      <point x="93" y="720" type="curve"/>
      <point x="93" y="768"/>
      <point x="142" y="803"/>
      <point x="206" y="803" type="curve"/>
      <point x="273" y="803"/>
      <point x="318" y="768"/>
      <point x="318" y="720" type="curve"/>
      <point x="318" y="674"/>
      <point x="273" y="636"/>
      <point x="206" y="636" type="curve"/>
    </contour>
    <contour>
      <point x="206" y="520" type="move" name="_top"/>
    </contour>
  </outline>
</glyph>
<glyph name="uni0312" format="1">
  <advance width="249"/>
  <unicode hex="0312"/>
  <outline>
    <contour>
      <point x="70" y="635"/>
      <point x="90" y="617"/>
      <point x="119" y="617" type="curve" smooth="yes"/>
      <point x="147" y="617"/>
      <point x="164" y="631"/>
      <point x="164" y="648" type="curve" smooth="yes"/>
      <point x="164" y="665"/>
      <point x="148" y="676"/>
      <point x="125" y="676" type="curve" smooth="yes"/>
      <point x="112" y="676"/>
      <point x="101" y="674"/>
      <point x="90" y="672" type="curve"/>
      <point x="97" y="716"/>
      <point x="129" y="752"/>
      <point x="179" y="797" type="curve"/>
      <point x="168" y="809" type="line"/>
      <point x="107" y="761"/>
      <point x="70" y="707"/>
      <point x="70" y="664" type="curve" smooth="yes"/>
    </contour>
    <contour>
      <point x="120" y="520" type="move" name="_top"/>
    </contour>
  </outline>
</glyph>
<glyph name="uni0327" format="1">
  <advance width="347"/>
  <unicode hex="0327"/>
  <outline>
    <contour>
      <point x="255" y="-175"/>
      <point x="297" y="-158"/>
      <point x="297" y="-124" type="curve" smooth="yes"/>
      <point x="297" y="-87"/>
      <point x="258" y="-77"/>
      <point x="182" y="-73" type="curve" smooth="yes"/>
      <point x="123" y="-70"/>
      <point x="93" y="-59"/>
      <point x="93" y="-40" type="curve" smooth="yes"/>
      <point x="93" y="-24"/>
      <point x="110" y="-12"/>
      <point x="128" y="-10" type="curve"/>
      <point x="120" y="1" type="line"/>
      <point x="95" y="-1"/>
      <point x="70" y="-17"/>
      <point x="70" y="-44" type="curve" smooth="yes"/>
      <point x="70" y="-70"/>
      <point x="104" y="-91"/>
      <point x="182" y="-95" type="curve" smooth="yes"/>
      <point x="243" y="-98"/>
      <point x="274" y="-102"/>
      <point x="274" y="-124" type="curve" smooth="yes"/>
      <point x="274" y="-146"/>
      <point x="235" y="-153"/>
      <point x="192" y="-153" type="curve" smooth="yes"/>
      <point x="138" y="-153"/>
      <point x="87" y="-134"/>
      <point x="63" y="-115" type="curve"/>
      <point x="50" y="-133" type="line"/>
      <point x="75" y="-153"/>
      <point x="129" y="-175"/>
      <point x="192" y="-175" type="curve" smooth="yes"/>
    </contour>
    <contour>
      <point x="128" y="-10" type="move" name="_bottom"/>
    </contour>
  </outline>
</glyph>
<glyph name="quotedblright" format="1">
  <advance width="410"/>
  <unicode hex="201D"/>
  <outline>
    <contour>
      <point x="289" y="406"/>
      <point x="336" y="468"/>
      <point x="336" y="511" type="curve" smooth="yes"/>
      <point x="336" y="543"/>
      <point x="317" y="563"/>
      <point x="282" y="563" type="curve" smooth="yes"/>
      <point x="251" y="563"/>
      <point x="232" y="548"/>
      <point x="232" y="529" type="curve" smooth="yes"/>
      <point x="232" y="510"/>
      <point x="250" y="499"/>
      <point x="275" y="499" type="curve" smooth="yes"/>
      <point x="290" y="499"/>
      <point x="303" y="501"/>
      <point x="315" y="503" type="curve"/>
      <point x="308" y="459"/>
      <point x="267" y="415"/>
      <point x="217" y="370" type="curve"/>
      <point x="228" y="358" type="line"/>
    </contour>
    <contour>
      <point x="146" y="406"/>
      <point x="193" y="468"/>
      <point x="193" y="511" type="curve" smooth="yes"/>
      <point x="193" y="543"/>
      <point x="174" y="563"/>
      <point x="139" y="563" type="curve" smooth="yes"/>
      <point x="108" y="563"/>
      <point x="89" y="548"/>
      <point x="89" y="529" type="curve" smooth="yes"/>
      <point x="89" y="510"/>
      <point x="107" y="499"/>
      <point x="132" y="499" type="curve" smooth="yes"/>
      <point x="147" y="499"/>
      <point x="160" y="501"/>
      <point x="172" y="503" type="curve"/>
      <point x="165" y="459"/>
      <point x="124" y="415"/>
      <point x="74" y="370" type="curve"/>
      <point x="85" y="358" type="line"/>
    </contour>
  </outline>
</glyph>
<glyph name="trademark" format="1">
  <advance width="944"/>
  <unicode hex="2122"/>
  <outline>
    <contour>
      <point x="640" y="296" type="line"/>
      <point x="644" y="328" type="line"/>
      <point x="501" y="520" type="line"/>
      <point x="471" y="520" type="line"/>
      <point x="638" y="296" type="line"/>
    </contour>
    <contour>
      <point x="293" y="300" type="line"/>
      <point x="293" y="323" type="line"/>
      <point x="120" y="323" type="line"/>
      <point x="120" y="300" type="line"/>
    </contour>
    <contour>
      <point x="219" y="305" type="line"/>
      <point x="219" y="502" type="line"/>
      <point x="194" y="502" type="line"/>
      <point x="194" y="305" type="line"/>
    </contour>
    <contour>
      <point x="75" y="443" type="line"/>
      <point x="75" y="497" type="line"/>
      <point x="339" y="497" type="line"/>
      <point x="339" y="443" type="line"/>
      <point x="364" y="443" type="line"/>
      <point x="364" y="520" type="line"/>
      <point x="50" y="520" type="line"/>
      <point x="50" y="443" type="line"/>
    </contour>
    <contour>
      <point x="547" y="300" type="line"/>
      <point x="547" y="323" type="line"/>
      <point x="404" y="323" type="line"/>
      <point x="404" y="300" type="line"/>
    </contour>
    <contour>
      <point x="496" y="305" type="line"/>
      <point x="496" y="520" type="line"/>
      <point x="471" y="520" type="line"/>
      <point x="471" y="305" type="line"/>
    </contour>
    <contour>
      <point x="494" y="497" type="line"/>
      <point x="494" y="520" type="line"/>
      <point x="404" y="520" type="line"/>
      <point x="404" y="497" type="line"/>
    </contour>
    <contour>
      <point x="874" y="300" type="line"/>
      <point x="874" y="323" type="line"/>
      <point x="732" y="323" type="line"/>
      <point x="732" y="300" type="line"/>
    </contour>
    <contour>
      <point x="640" y="296" type="line"/>
      <point x="808" y="520" type="line"/>
      <point x="779" y="520" type="line"/>
      <point x="636" y="327" type="line"/>
      <point x="638" y="296" type="line"/>
    </contour>
    <contour>
      <point x="807" y="305" type="line"/>
      <point x="807" y="520" type="line"/>
      <point x="782" y="520" type="line"/>
      <point x="782" y="305" type="line"/>
    </contour>
    <contour>
      <point x="874" y="497" type="line"/>
      <point x="874" y="520" type="line"/>
      <point x="785" y="520" type="line"/>
      <point x="785" y="497" type="line"/>
    </contour>
  </outline>
</glyph>
<glyph name="Q.alt" format="1">
  <advance width="910"/>
  <outline>
    <contour>
      <point x="1361" y="-280"/>
      <point x="1461" y="-227"/>
      <point x="1527" y="-184" type="curve"/>
      <point x="1514" y="-165" type="line"/>
      <point x="1453" y="-206"/>
      <point x="1357" y="-257"/>
      <point x="1217" y="-257" type="curve" smooth="yes"/>
      <point x="1048" y="-257"/>
      <point x="917" y="-177"/>
      <point x="721" y="20" type="curve" smooth="yes"/>
      <point x="557" y="185"/>
      <point x="433" y="265"/>
      <point x="185" y="265" type="curve" smooth="yes"/>
      <point x="88" y="265" type="line"/>
      <point x="88" y="242" type="line"/>
      <point x="185" y="242" type="line" smooth="yes"/>
      <point x="412" y="242"/>
      <point x="532" y="174"/>
      <point x="686" y="19" type="curve" smooth="yes"/>
      <point x="888" y="-185"/>
      <point x="1027" y="-280"/>
      <point x="1217" y="-280" type="curve" smooth="yes"/>
    </contour>
    <contour>
      <point x="674" y="-10"/>
      <point x="841" y="88"/>
      <point x="841" y="258" type="curve"/>
      <point x="841" y="427"/>
      <point x="674" y="526"/>
      <point x="458" y="526" type="curve"/>
      <point x="242" y="526"/>
      <point x="75" y="427"/>
      <point x="75" y="258" type="curve"/>
      <point x="75" y="88"/>
      <point x="242" y="-10"/>
      <point x="458" y="-10" type="curve"/>
    </contour>
    <contour>
      <point x="252" y="13"/>
      <point x="100" y="106"/>
      <point x="100" y="258" type="curve"/>
      <point x="100" y="410"/>
      <point x="252" y="503"/>
      <point x="458" y="503" type="curve"/>
      <point x="663" y="503"/>
      <point x="816" y="410"/>
      <point x="816" y="258" type="curve"/>
      <point x="816" y="106"/>
      <point x="663" y="13"/>
      <point x="458" y="13" type="curve"/>
    </contour>
    <contour>
      <point x="456" y="530" type="move" name="top"/>
    </contour>
    <contour>
      <point x="456" y="-10" type="move" name="bottom"/>
    </contour>
  </outline>
</glyph>
<glyph name="W.bold" format="1">
  <advance width="1212"/>
  <outline>
    <contour>
      <point x="371" y="-10" type="line"/>
      <point x="379" y="21" type="line"/>
      <point x="180" y="507" type="line"/>
      <point x="151" y="507" type="line"/>
      <point x="365" y="-10" type="line"/>
    </contour>
    <contour>
      <point x="373" y="-10" type="line"/>
      <point x="618" y="480" type="line"/>
      <point x="607" y="507" type="line"/>
      <point x="603" y="507" type="line"/>
      <point x="362" y="19" type="line"/>
      <point x="369" y="-10" type="line"/>
    </contour>
    <contour>
      <point x="841" y="-10" type="line"/>
      <point x="849" y="21" type="line"/>
      <point x="611" y="507" type="line"/>
      <point x="605" y="507" type="line"/>
      <point x="595" y="480" type="line"/>
      <point x="837" y="-10" type="line"/>
    </contour>
    <contour>
      <point x="844" y="-10" type="line"/>
      <point x="1060" y="507" type="line"/>
      <point x="1031" y="507" type="line"/>
      <point x="833" y="21" type="line"/>
      <point x="840" y="-10" type="line"/>
    </contour>
    <contour>
      <point x="880" y="520" type="line"/>
      <point x="880" y="497" type="line"/>
      <point x="1217" y="497" type="line"/>
      <point x="1217" y="520" type="line"/>
    </contour>
    <contour>
      <point x="-5" y="497" type="line"/>
      <point x="332" y="497" type="line"/>
      <point x="332" y="520" type="line"/>
      <point x="-5" y="520" type="line"/>
    </contour>
    <contour>
      <point x="630" y="520" type="move" name="top"/>
    </contour>
    <contour>
      <point x="623" y="0" type="move" name="bottom"/>
    </contour>
  </outline>
</glyph>
<glyph name="f.alt" format="1">
  <advance width="546"/>
  <outline>
    <contour>
      <point x="163" y="413"/>
      <point x="194" y="380"/>
      <point x="232" y="348" type="curve"/>
      <point x="232" y="0" type="line"/>
      <point x="257" y="0" type="line"/>
      <point x="257" y="348" type="line"/>
      <point x="219" y="384"/>
      <point x="188" y="418"/>
      <point x="188" y="455" type="curve"/>
      <point x="188" y="499"/>
      <point x="230" y="532"/>
      <point x="306" y="532" type="curve" smooth="yes"/>
      <point x="385" y="532"/>
      <point x="445" y="510"/>
      <point x="491" y="490" type="curve"/>
      <point x="501" y="511" type="line"/>
      <point x="448" y="534"/>
      <point x="385" y="555"/>
      <point x="307" y="555" type="curve" smooth="yes"/>
      <point x="214" y="555"/>
      <point x="163" y="511"/>
      <point x="163" y="455" type="curve"/>
    </contour>
    <contour>
      <point x="50" y="357" type="line"/>
      <point x="50" y="334" type="line"/>
      <point x="439" y="334" type="line"/>
      <point x="439" y="357" type="line"/>
    </contour>
    <contour>
      <point x="50" y="0" type="line"/>
      <point x="444" y="0" type="line"/>
      <point x="444" y="23" type="line"/>
      <point x="50" y="23" type="line"/>
    </contour>
    <contour>
      <point x="269" y="557" type="move" name="top"/>
    </contour>
    <contour>
      <point x="269" y="0" type="move" name="bottom"/>
    </contour>
  </outline>
</glyph>
<glyph name="u.alt" format="1">
  <advance width="874"/>
  <outline>
    <contour>
      <point x="495" y="-10"/>
      <point x="590" y="41"/>
      <point x="690" y="89" type="curve"/>
      <point x="690" y="111" type="line"/>
      <point x="590" y="62"/>
      <point x="480" y="13"/>
      <point x="381" y="13" type="curve"/>
      <point x="271" y="13"/>
      <point x="210" y="60"/>
      <point x="210" y="166" type="curve"/>
      <point x="210" y="357" type="line"/>
      <point x="185" y="357" type="line"/>
      <point x="185" y="166" type="line"/>
      <point x="185" y="40"/>
      <point x="261" y="-9"/>
      <point x="381" y="-10" type="curve"/>
    </contour>
    <contour>
      <point x="197" y="334" type="line"/>
      <point x="197" y="357" type="line"/>
      <point x="13" y="357" type="line"/>
      <point x="13" y="334" type="line"/>
    </contour>
    <contour>
      <point x="697" y="334" type="line"/>
      <point x="697" y="357" type="line"/>
      <point x="519" y="357" type="line"/>
      <point x="519" y="334" type="line"/>
    </contour>
    <contour>
      <point x="836" y="-10"/>
      <point x="859" y="49"/>
      <point x="859" y="98" type="curve" smooth="yes"/>
      <point x="859" y="112" type="line"/>
      <point x="834" y="112" type="line"/>
      <point x="834" y="98" type="line" smooth="yes"/>
      <point x="834" y="48"/>
      <point x="813" y="13"/>
      <point x="771" y="13" type="curve" smooth="yes"/>
      <point x="725" y="13"/>
      <point x="704" y="48"/>
      <point x="704" y="108" type="curve"/>
      <point x="704" y="357" type="line"/>
      <point x="679" y="357" type="line"/>
      <point x="679" y="108" type="line"/>
      <point x="679" y="39"/>
      <point x="706" y="-10"/>
      <point x="769" y="-10" type="curve" smooth="yes"/>
    </contour>
    <contour>
      <point x="792" y="-4" type="move" name="ogonek"/>
    </contour>
    <contour>
      <point x="444" y="357" type="move" name="top"/>
    </contour>
    <contour>
      <point x="859" y="357" type="move" name="topright"/>
    </contour>
    <contour>
      <point x="444" y="-20" type="move" name="bottom"/>
    </contour>
  </outline>
</glyph>
<glyph name="z.alt" format="1">
  <advance width="687"/>
  <outline>
    <contour>
      <point x="631" y="0" type="line"/>
      <point x="631" y="183" type="line"/>
      <point x="608" y="183" type="line"/>
      <point x="608" y="23" type="line"/>
      <point x="148" y="23" type="line"/>
      <point x="125" y="19" type="line"/>
      <point x="125" y="20" type="line"/>
      <point x="145" y="30" type="line"/>
      <point x="632" y="342" type="line"/>
      <point x="632" y="355" type="line"/>
      <point x="75" y="355" type="line"/>
      <point x="75" y="172" type="line"/>
      <point x="98" y="172" type="line"/>
      <point x="98" y="332" type="line"/>
      <point x="554" y="332" type="line"/>
      <point x="577" y="336" type="line"/>
      <point x="577" y="335" type="line"/>
      <point x="557" y="325" type="line"/>
      <point x="69" y="13" type="line"/>
      <point x="69" y="0" type="line"/>
    </contour>
    <contour>
      <point x="344" y="357" type="move" name="top"/>
    </contour>
    <contour>
      <point x="346" y="0" type="move" name="bottom"/>
    </contour>
  </outline>
</glyph>
